<?xml version="1.0" encoding="utf-8"?>
<!-- Generator: Adobe Illustrator 16.0.4, SVG Export Plug-In . SVG Version: 6.00 Build 0)  -->
<!DOCTYPE svg PUBLIC "-//W3C//DTD SVG 1.1//EN" "http://www.w3.org/Graphics/SVG/1.1/DTD/svg11.dtd">
<svg version="1.1" id="Layer_1" xmlns="http://www.w3.org/2000/svg" xmlns:xlink="http://www.w3.org/1999/xlink" x="0px" y="0px"
	 width="30px" height="30px" viewBox="0 0 30 30" enable-background="new 0 0 30 30" xml:space="preserve">
<g>
	<defs>
		<rect id="SVGID_1_" width="30" height="30"/>
	</defs>
	<clipPath id="SVGID_2_">
		<use xlink:href="#SVGID_1_"  overflow="visible"/>
	</clipPath>
	<path clip-path="url(#SVGID_2_)" fill="#475993" d="M25.957,0H4.042C1.81,0,0,1.81,0,4.042v21.915C0,28.19,1.81,30,4.042,30h10.808
		l0.019-10.72h-2.785c-0.362,0-0.656-0.293-0.657-0.655l-0.013-3.455c-0.001-0.364,0.293-0.66,0.657-0.66h2.78V11.17
		c0-3.875,2.367-5.984,5.823-5.984h2.837c0.362,0,0.657,0.294,0.657,0.657v2.914c0,0.363-0.294,0.657-0.657,0.657l-1.74,0
		c-1.88,0-2.244,0.894-2.244,2.205v2.891h4.131c0.394,0,0.699,0.344,0.652,0.734L23.9,18.7c-0.039,0.331-0.32,0.58-0.653,0.58
		h-3.702L19.526,30h6.431C28.19,30,30,28.19,30,25.958V4.042C30,1.81,28.19,0,25.957,0"/>
</g>
</svg>
